<?xml version="1.0" standalone="no"?><svg xmlns="http://www.w3.org/2000/svg" viewBox="0 0 1440 320"><path fill="#ffffff" fill-opacity="1" d="M0,32L40,69.3C80,107,160,181,240,192C320,203,400,149,480,149.3C560,149,640,203,720,234.7C800,267,880,277,960,256C1040,235,1120,181,1200,160C1280,139,1360,149,1400,154.7L1440,160L1440,320L1400,320C1360,320,1280,320,1200,320C1120,320,1040,320,960,320C880,320,800,320,720,320C640,320,560,320,480,320C400,320,320,320,240,320C160,320,80,320,40,320L0,320Z"></path></svg>